<svg width="16" height="16" viewBox="0 0 16 16" fill="none" xmlns="http://www.w3.org/2000/svg">
<g clip-path="url(#clip0_4_818)">
<path d="M8 15.5C12.4062 15.5 16 11.9375 16 7.5C16 3.09375 12.4062 -0.5 8 -0.5C3.5625 -0.5 0 3.09375 0 7.5C0 11.9375 3.5625 15.5 8 15.5ZM6.75 10H7.5V8H6.75C6.3125 8 6 7.6875 6 7.25C6 6.84375 6.3125 6.5 6.75 6.5H8.25C8.65625 6.5 9 6.84375 9 7.25V10H9.25C9.65625 10 10 10.3438 10 10.75C10 11.1875 9.65625 11.5 9.25 11.5H6.75C6.3125 11.5 6 11.1875 6 10.75C6 10.3438 6.3125 10 6.75 10ZM8 5.5C7.4375 5.5 7 5.0625 7 4.5C7 3.96875 7.4375 3.5 8 3.5C8.53125 3.5 9 3.96875 9 4.5C9 5.0625 8.53125 5.5 8 5.5Z" fill="#868E96"/>
</g>
<defs>
<clipPath id="clip0_4_818">
<rect width="16" height="16" fill="white"/>
</clipPath>
</defs>
</svg>
