<svg width="20" height="16" viewBox="0 0 20 16" fill="none" xmlns="http://www.w3.org/2000/svg">
<path d="M17.5 2.5H19.5C19.75 2.5 20 2.75 20 3C20 3.28125 19.75 3.5 19.5 3.5H17.5V5.5C17.5 5.78125 17.25 6 17 6C16.7188 6 16.5 5.78125 16.5 5.5V3.5H14.5C14.2188 3.5 14 3.28125 14 3C14 2.75 14.2188 2.5 14.5 2.5H16.5V0.5C16.5 0.25 16.7188 0 17 0C17.25 0 17.5 0.25 17.5 0.5V2.5ZM3.75 7.5C3.75 7.09375 4.09375 6.75 4.5 6.75C4.90625 6.75 5.25 7.09375 5.25 7.5C5.25 7.9375 4.90625 8.25 4.5 8.25C4.09375 8.25 3.75 7.9375 3.75 7.5ZM10.25 7.5C10.25 7.9375 9.90625 8.25 9.5 8.25C9.09375 8.25 8.75 7.9375 8.75 7.5C8.75 7.09375 9.09375 6.75 9.5 6.75C9.90625 6.75 10.25 7.09375 10.25 7.5ZM4.9375 11.7188C5.46875 12.1562 6.125 12.5 7 12.5C7.84375 12.5 8.5 12.1562 9.03125 11.7188C9.5625 11.25 9.875 10.6875 10.0312 10.3438C10.125 10.0625 10.4062 9.9375 10.6562 10.0625C10.9375 10.1562 11.0625 10.4375 10.9375 10.6875C10.75 11.1875 10.3438 11.875 9.6875 12.4375C9.03125 13.0312 8.125 13.5 6.96875 13.5C5.84375 13.5 4.9375 13.0312 4.28125 12.4375C3.625 11.875 3.21875 11.1875 3.03125 10.6875C2.90625 10.4375 3.03125 10.1562 3.3125 10.0625C3.5625 9.9375 3.84375 10.0625 3.9375 10.3438C4.09375 10.6875 4.40625 11.25 4.9375 11.7188ZM14 9C14 12.875 10.8438 16 7 16C3.125 16 0 12.875 0 9C0 5.15625 3.125 2 7 2C10.8438 2 14 5.15625 14 9ZM7 3C3.65625 3 1 5.6875 1 9C1 12.3125 3.65625 15 7 15C10.3125 15 13 12.3125 13 9C13 5.6875 10.3125 3 7 3Z" fill="#868E96"/>
</svg>
